<svg width="133" height="30" viewBox="0 0 133 30" fill="none" xmlns="http://www.w3.org/2000/svg">
<path d="M0.25 2.08001C1.2 -0.149993 3.14 1.00001 4.55 1.00001C45.66 0.920005 86.78 1.00001 127.89 0.870008C130.89 0.870008 132.32 1.32001 132.17 4.87001C131.87 11.87 132 18.87 132.17 25.87C132.17 28.27 131.81 29.41 128.97 29.39C94.9967 29.1833 61.0333 29.08 27.08 29.08C26.6752 28.6634 26.304 28.2153 25.97 27.74C23.97 23.96 25.17 19.92 25.12 16.01C24.99 4.14001 24.77 3.87001 12.79 4.08001C9.02 4.15001 5.18 5.08001 1.55 3.25001C1.07521 2.90869 0.639272 2.51635 0.25 2.08001Z" fill="#F6F6F6"/>
<path d="M0.250025 2.08002L1.34003 2.21001C3.18003 3.78001 3.24003 5.94002 3.34002 8.11002C3.43002 12.24 3.34003 16.37 3.41003 20.5C3.41003 23.91 4.89003 25.65 8.41003 25.84C11.93 26.03 15.66 26.05 19.3 25.93C22.06 25.83 25 25.44 27.09 28.02V29.02C18.99 29.1 10.89 29.11 2.79003 29.3C0.500026 29.3 0.0300284 28.4 0.0700284 26.3C0.190028 18.28 0.200025 10.17 0.250025 2.08002Z" fill="#F6F6F6"/>
<path d="M27.08 28.01C19.65 28.01 12.22 27.91 4.80001 28.08C2.01001 28.15 1.07001 27.31 1.16001 24.47C1.38001 17.05 1.32001 9.63 1.37001 2.2C8.8 2.2 16.25 2.28 23.68 2.08C26.52 2 27.38 2.9 27.3 5.71C27.08 13.14 27.08 20.57 27.08 28.01Z" fill="#3E3F3D"/>
<path d="M108.46 15.36C110.1 13.05 107.51 9.19002 110.74 9.22002C113.37 9.22002 111.92 12.79 111.91 14.67C111.91 16.82 113.4 20.04 110.98 20.97C108.56 21.9 107.59 18.47 106.04 16.91C105.602 16.2802 105.283 15.5751 105.1 14.83C102.26 17 105.1 21.36 101.95 20.99C98.8 20.62 100.95 16.83 100.45 14.61C100.318 13.6144 100.318 12.6057 100.45 11.61C100.45 10.61 100.21 9.48002 101.38 9.02002C102.55 8.56002 103.52 9.40002 104.28 10.34C105.58 12 106.96 13.59 108.46 15.36Z" fill="#464646"/>
<path d="M93.08 20.16C92.44 21.75 91.38 21.65 90.48 20.72C87.7 17.84 85.11 17.43 82.48 20.87C82.21 21.21 81.22 21.24 80.69 21.06C79.82 20.76 80.19 19.94 80.43 19.39C81.81 16.22 83.17 13.02 84.71 9.92C85.44 8.45 87.35 8.23001 88 9.38001C89.87 12.81 91.34 16.5 93.08 20.16Z" fill="#464646"/>
<path d="M78.46 21.08C76.23 21.42 75.46 20.68 74.76 19.65C73.38 17.65 71.89 16.65 70.94 19.98C70.9108 20.1803 70.8402 20.3723 70.7328 20.5438C70.6254 20.7154 70.4835 20.8627 70.3161 20.9765C70.1487 21.0903 69.9595 21.168 69.7605 21.2048C69.5615 21.2415 69.357 21.2365 69.16 21.19C68.05 21.07 68.09 20.19 68.08 19.33C67.96 17.1884 67.96 15.0417 68.08 12.9C68.21 11.5 66.92 9.15001 69.49 8.90001C72.06 8.65001 75.2 8.11001 77.49 10.34C78.94 11.75 79.49 13.8 78.15 15.25C76.3 17.32 77.49 19.08 78.46 21.08Z" fill="#414141"/>
<path d="M120.99 11.08C119.52 11.08 117.91 10.57 117.66 12.08C117.35 13.92 119.22 13.8 120.4 14.08C122.21 14.57 123.99 15.08 124.12 17.38C124.253 18.2117 124.06 19.0627 123.582 19.7558C123.103 20.4488 122.375 20.9303 121.55 21.1C119.26 21.69 116.96 21.76 114.88 20.38C114.721 20.2184 114.605 20.0189 114.544 19.8002C114.482 19.5816 114.478 19.351 114.53 19.13C114.655 18.9288 114.826 18.7609 115.03 18.6407C115.234 18.5205 115.464 18.4516 115.7 18.44C116.83 18.55 117.94 18.95 119.07 19.05C119.81 19.12 120.84 19.27 121.07 18.14C121.3 17.01 120.36 16.78 119.63 16.44C119.31 16.3093 118.973 16.2218 118.63 16.18C116.18 15.75 113.63 14.84 114.33 11.91C115.04 8.71002 118.01 8.51002 120.78 8.80002C121.78 8.92002 123.41 8.71001 123.23 10.47C122.99 12.81 121.48 10.83 120.99 11.08Z" fill="#424242"/>
<path d="M60.95 8.92C62.45 8.92 63.95 8.86 65.44 8.92C65.654 8.98676 65.8473 9.10734 66.0014 9.27017C66.1555 9.433 66.2652 9.63264 66.32 9.85C66.37 10.18 65.91 10.9 65.67 10.91C60.73 11.01 63.04 14.78 62.48 17.1C62.13 18.52 63.48 21.1 60.98 21.1C58.48 21.1 59.73 18.55 59.43 17.1C58.95 14.72 61.01 11.23 56.24 10.76C55.24 10.66 55.67 9.05 56.96 8.9C58.2922 8.81951 59.6279 8.81951 60.96 8.9L60.95 8.92Z" fill="#484848"/>
<path d="M50.39 9.99001C46.59 10.74 46 12.92 46.18 16.09C46.27 17.71 47.62 20.85 44.87 20.9C42.71 20.95 44.01 17.9 43.68 16.32C43.24 14.21 45 10.93 40.68 10.96C40.46 10.96 40.03 10.21 40.09 9.88C40.15 9.55 40.67 8.97 41 8.97C44.08 8.9 47.08 8.51001 50.39 9.99001Z" fill="#3B3B3B"/>
<path d="M38.26 14.65C37.4 16.81 39.5 20.89 36.65 20.92C33.65 20.92 35.31 16.92 35.25 14.77C35.25 12.86 33.62 9.20001 36.79 9.22001C39.48 9.24001 37.38 12.82 38.26 14.65Z" fill="#4E4E4E"/>
<path d="M98.08 15.08C97.08 17.08 99.39 20.9 96.37 20.98C93.35 21.06 94.77 17.26 94.85 15.3C94.95 13.17 93.1 9.22 96.43 9.19C99.3 9.19 97.08 13.08 98.08 15.08Z" fill="#505050"/>
<path d="M18.93 16.98C19.56 15.73 21.27 13.38 18.04 14.34C14.51 15.34 11.16 14.69 7.66002 14.56L11.28 14.02C10.08 12.08 8.08001 13.75 6.89001 12.62C8.00001 7.62001 10.89 5.55001 15.79 6.27001C20.69 6.99001 23.2 10.88 22.87 16.97C22.19 18.91 20.97 19.48 19.12 18.45C18.9251 18.2636 18.8 18.016 18.7654 17.7486C18.7308 17.4811 18.7889 17.2099 18.93 16.98Z" fill="#F2C75F"/>
<path d="M22.08 19.77C16.38 25.63 11.79 25.63 6.64001 19.77C11.79 16.79 16.93 17.46 22.08 19.77Z" fill="#F0C664"/>
<path d="M22.08 19.77C17.0033 18.5999 11.7268 18.5999 6.65003 19.77C6.48003 19.22 6.32003 18.67 6.16003 18.12C10.4717 17.3572 14.878 17.293 19.21 17.93C20.5134 18.0819 21.825 17.7235 22.87 16.93C22.8 17.96 22.99 19.02 22.08 19.77Z" fill="#8D6724"/>
<path d="M19.21 17.92L6.16003 18.08C10.23 15.63 14.68 17.44 18.93 16.95C19.0759 17.2558 19.1705 17.5835 19.21 17.92Z" fill="#B29962"/>
<path d="M72.67 15.69C70.59 15.69 70.99 14.13 70.92 12.9C70.84 11.31 71.81 11.03 73.12 11.13C74.43 11.23 75.85 11.92 75.84 13.37C75.82 15.22 74.14 15.48 72.67 15.69Z" fill="#F6F6F6"/>
</svg>
